HIERARCHY
ROOT pelvis
{
	OFFSET 0.00 0.00 0.00
	CHANNELS 6 Xposition Yposition Zposition Xrotation Yrotation Zrotation
	JOINT lfemur
	{
		OFFSET 0.00 4.06 0.00
		CHANNELS 3 Xrotation Yrotation Zrotation
		JOINT ltibia
		{
			OFFSET 0.00 0.00 -16.01
			CHANNELS 3 Xrotation Yrotation Zrotation
			JOINT lfoot
			{
				OFFSET 0.00 0.00 -15.75
				CHANNELS 3 Xrotation Yrotation Zrotation
				JOINT ltoes
				{
					OFFSET 3.98 0.00 -1.33
					CHANNELS 3 Xrotation Yrotation Zrotation
				}
			}
		}
	}
	JOINT rfemur
	{
		OFFSET 0.00 -4.06 0.00
		CHANNELS 3 Xrotation Yrotation Zrotation
		JOINT rtibia
		{
			OFFSET 0.00 0.00 -16.02
			CHANNELS 3 Xrotation Yrotation Zrotation
			JOINT rfoot
			{
				OFFSET 0.00 0.00 -14.97
				CHANNELS 3 Xrotation Yrotation Zrotation
				JOINT rtoes
				{
					OFFSET 3.59 0.00 -1.84
					CHANNELS 3 Xrotation Yrotation Zrotation
				}
			}
		}
	}
	JOINT lowerback
	{
		OFFSET -1.97 0.00 3.64
		CHANNELS 3 Xrotation Yrotation Zrotation
		JOINT upperback
		{
			OFFSET 1.10 0.00 5.68
			CHANNELS 3 Xrotation Yrotation Zrotation
			JOINT lclavicle
			{
				OFFSET 0.00 0.00 8.27
				CHANNELS 3 Xrotation Yrotation Zrotation
				JOINT lhumerus
				{
					OFFSET 0.00 5.45 -0.49
					CHANNELS 3 Xrotation Yrotation Zrotation
					JOINT lradius
					{
						OFFSET 0.00 0.00 -10.58
						CHANNELS 3 Xrotation Yrotation Zrotation
						JOINT lhand
						{
							OFFSET 0.00 0.00 -8.38
							CHANNELS 3 Xrotation Yrotation Zrotation
						}
					}
				}
			}
			JOINT rclavicle
			{
				OFFSET 0.00 0.00 8.27
				CHANNELS 3 Xrotation Yrotation Zrotation
				JOINT rhumerus
				{
					OFFSET 0.00 -5.70 -0.50
					CHANNELS 3 Xrotation Yrotation Zrotation
					JOINT rradius
					{
						OFFSET 0.00 0.00 -10.60
						CHANNELS 3 Xrotation Yrotation Zrotation
						JOINT rhand
						{
							OFFSET 0.00 0.00 -8.76
							CHANNELS 3 Xrotation Yrotation Zrotation
						}
					}
				}
			}
			JOINT LowerNeck
			{
				OFFSET 0.00 0.00 8.27
				CHANNELS 3 Xrotation Yrotation Zrotation
				JOINT Neck
				{
					OFFSET -1.62 0.11 3.13
					CHANNELS 3 Xrotation Yrotation Zrotation
				}
			}
		}
	}
}
MOTION
Frames: 23
Frame Time: 0.008333
-3.18	-50.61	32.72	-7.35	0.77	-87.27	-1.02	8.42	-2.85	0.00	5.54	17.10	-0.33	-16.61	-1.29	0.00	-11.61	-0.00	-0.31	8.63	-1.72	0.00	3.87	-14.49	0.75	-18.10	2.89	0.00	1.59	0.00	2.74	8.91	0.91	-0.43	-1.86	-3.33	-8.20	0.00	1.68	25.47	0.81	-22.47	0.00	-24.00	-5.36	-7.98	-8.90	-0.00	7.95	-0.00	4.29	-26.67	2.06	25.11	-0.00	-23.29	5.13	9.94	-10.18	0.00	-1.85	17.81	4.41	3.71	-38.35	0.29	
-3.18	-50.61	32.72	-7.35	0.77	-87.27	-1.02	8.42	-2.85	0.00	5.54	17.10	-0.33	-16.61	-1.29	0.00	-11.61	-0.00	-0.31	8.63	-1.72	0.00	3.87	-14.49	0.75	-18.10	2.89	0.00	1.59	0.00	2.74	8.91	0.91	-0.43	-1.86	-3.33	-8.20	0.00	1.68	25.47	0.81	-22.47	0.00	-24.00	-5.36	-7.98	-8.90	-0.00	7.95	-0.00	4.29	-26.67	2.06	25.11	-0.00	-23.29	5.13	9.94	-10.18	0.00	-1.85	17.81	4.41	3.71	-38.35	0.29	
-3.18	-50.61	32.72	-7.37	0.76	-87.28	-1.04	8.42	-2.88	0.00	5.54	17.10	-0.32	-16.59	-1.25	-0.00	-11.66	-0.00	-0.33	8.63	-1.70	0.00	3.89	-14.47	0.74	-18.13	2.85	-0.00	1.66	0.00	2.75	8.91	0.89	-0.43	-1.83	-3.31	-8.23	0.00	1.66	25.42	0.83	-22.36	-0.00	-23.97	-5.43	-8.10	-8.99	-0.00	7.96	-0.00	4.34	-26.72	2.13	24.94	0.00	-23.31	5.15	10.09	-10.11	0.00	-1.94	17.87	4.30	3.58	-38.37	-0.03	
-3.18	-50.61	32.72	-7.37	0.76	-87.28	-1.04	8.42	-2.88	0.00	5.54	17.10	-0.32	-16.59	-1.25	-0.00	-11.66	-0.00	-0.33	8.63	-1.70	0.00	3.89	-14.47	0.74	-18.13	2.85	-0.00	1.66	0.00	2.75	8.91	0.89	-0.43	-1.83	-3.31	-8.23	0.00	1.66	25.42	0.83	-22.36	-0.00	-23.97	-5.43	-8.10	-8.99	-0.00	7.96	-0.00	4.34	-26.72	2.13	24.94	0.00	-23.31	5.15	10.09	-10.11	0.00	-1.94	17.87	4.30	3.58	-38.37	-0.03	
-3.18	-50.61	32.72	-7.38	0.75	-87.31	-1.06	8.43	-2.91	0.00	5.53	17.11	-0.33	-16.58	-1.26	0.00	-11.66	0.00	-0.35	8.64	-1.78	0.00	3.89	-14.43	0.74	-18.14	2.85	-0.00	1.71	-0.00	2.76	8.90	0.88	-0.43	-1.83	-3.33	-8.24	0.00	1.66	25.34	0.88	-22.30	-0.00	-23.93	-5.36	-8.07	-8.98	-0.00	7.97	-0.00	4.29	-26.76	2.11	25.06	-0.00	-23.27	5.02	10.05	-10.06	0.00	-2.14	18.01	4.39	3.44	-38.46	-0.57	
-3.18	-50.61	32.72	-7.38	0.75	-87.31	-1.06	8.43	-2.91	0.00	5.53	17.11	-0.33	-16.58	-1.26	0.00	-11.66	0.00	-0.35	8.64	-1.78	0.00	3.89	-14.43	0.74	-18.14	2.85	-0.00	1.71	-0.00	2.76	8.90	0.88	-0.43	-1.83	-3.33	-8.24	0.00	1.66	25.34	0.88	-22.30	-0.00	-23.93	-5.36	-8.07	-8.98	-0.00	7.97	-0.00	4.29	-26.76	2.11	25.06	-0.00	-23.27	5.02	10.05	-10.06	0.00	-2.14	18.01	4.39	3.44	-38.46	-0.57	
-3.18	-50.62	32.72	-7.39	0.73	-87.32	-1.08	8.44	-2.95	-0.00	5.52	17.14	-0.32	-16.56	-1.25	-0.00	-11.66	-0.00	-0.37	8.64	-1.80	0.00	3.90	-14.39	0.73	-18.15	2.82	0.00	1.71	0.00	2.76	8.90	0.87	-0.43	-1.81	-3.33	-8.24	0.00	1.66	25.26	0.90	-22.28	-0.00	-23.92	-5.25	-8.07	-8.93	-0.00	7.97	-0.00	4.31	-26.77	2.15	24.94	0.00	-23.27	5.13	10.07	-10.04	0.00	-2.35	18.12	4.53	3.23	-38.54	-1.23	
-3.18	-50.62	32.72	-7.39	0.73	-87.32	-1.08	8.44	-2.95	-0.00	5.52	17.14	-0.32	-16.56	-1.25	-0.00	-11.66	-0.00	-0.37	8.64	-1.80	0.00	3.90	-14.39	0.73	-18.15	2.82	0.00	1.71	0.00	2.76	8.90	0.87	-0.43	-1.81	-3.33	-8.24	0.00	1.66	25.26	0.90	-22.28	-0.00	-23.92	-5.25	-8.07	-8.93	-0.00	7.97	-0.00	4.31	-26.77	2.15	24.94	0.00	-23.27	5.13	10.07	-10.04	0.00	-2.35	18.12	4.53	3.23	-38.54	-1.23	
-3.18	-50.62	32.72	-7.39	0.73	-87.33	-1.09	8.44	-2.95	0.00	5.51	17.13	-0.33	-16.55	-1.26	0.00	-11.66	-0.00	-0.37	8.64	-1.80	0.00	3.91	-14.38	0.73	-18.16	2.81	0.00	1.68	0.00	2.76	8.90	0.87	-0.42	-1.80	-3.34	-8.26	0.00	1.69	25.21	0.92	-22.27	-0.00	-23.94	-5.20	-8.08	-8.81	-0.00	7.98	-0.00	4.29	-26.78	2.15	24.96	-0.00	-23.24	5.14	9.89	-10.14	0.00	-2.36	18.18	4.36	3.01	-38.55	-1.56	
-3.18	-50.62	32.72	-7.39	0.73	-87.33	-1.09	8.44	-2.95	0.00	5.51	17.13	-0.33	-16.55	-1.26	0.00	-11.66	-0.00	-0.37	8.64	-1.80	0.00	3.91	-14.38	0.73	-18.16	2.81	0.00	1.68	0.00	2.76	8.90	0.87	-0.42	-1.80	-3.34	-8.26	0.00	1.69	25.21	0.92	-22.27	-0.00	-23.94	-5.20	-8.08	-8.81	-0.00	7.98	-0.00	4.29	-26.78	2.15	24.96	-0.00	-23.24	5.14	9.89	-10.14	0.00	-2.36	18.18	4.36	3.01	-38.55	-1.56	
-3.18	-50.62	32.71	-7.40	0.73	-87.33	-1.10	8.44	-2.95	-0.00	5.51	17.13	-0.32	-16.54	-1.25	-0.00	-11.70	-0.00	-0.38	8.64	-1.78	0.00	3.91	-14.38	0.72	-18.15	2.80	0.00	1.69	0.00	2.76	8.90	0.86	-0.41	-1.79	-3.36	-8.27	0.00	1.70	25.14	0.95	-22.25	-0.00	-23.94	-5.11	-8.05	-8.85	-0.00	7.99	-0.00	4.28	-26.80	2.11	24.98	-0.00	-23.25	5.06	9.96	-10.13	0.00	-2.40	18.29	4.37	2.62	-38.63	-2.05	
-3.18	-50.62	32.71	-7.40	0.73	-87.33	-1.10	8.44	-2.95	-0.00	5.51	17.13	-0.32	-16.54	-1.25	-0.00	-11.70	-0.00	-0.38	8.64	-1.78	0.00	3.91	-14.38	0.72	-18.15	2.80	0.00	1.69	0.00	2.76	8.90	0.86	-0.41	-1.79	-3.36	-8.27	0.00	1.70	25.14	0.95	-22.25	-0.00	-23.94	-5.11	-8.05	-8.85	-0.00	7.99	-0.00	4.28	-26.80	2.11	24.98	-0.00	-23.25	5.06	9.96	-10.13	0.00	-2.40	18.29	4.37	2.62	-38.63	-2.05	
-3.18	-50.63	32.71	-7.41	0.72	-87.33	-1.10	8.44	-3.01	-0.00	5.51	17.15	-0.32	-16.53	-1.22	-0.00	-11.70	-0.00	-0.39	8.64	-1.80	0.00	3.91	-14.37	0.73	-18.15	2.81	-0.00	1.67	-0.00	2.76	8.91	0.85	-0.41	-1.77	-3.38	-8.26	0.00	1.72	25.07	0.97	-22.25	-0.00	-23.95	-5.09	-8.04	-8.82	-0.00	7.99	-0.00	4.29	-26.81	2.10	24.94	0.00	-23.27	5.05	9.94	-10.14	-0.00	-2.46	18.38	4.45	2.24	-38.74	-2.60	
-3.18	-50.63	32.71	-7.41	0.72	-87.33	-1.10	8.44	-3.01	-0.00	5.51	17.15	-0.32	-16.53	-1.22	-0.00	-11.70	-0.00	-0.39	8.64	-1.80	0.00	3.91	-14.37	0.73	-18.15	2.81	-0.00	1.67	-0.00	2.76	8.91	0.85	-0.41	-1.77	-3.38	-8.26	0.00	1.72	25.07	0.97	-22.25	-0.00	-23.95	-5.09	-8.04	-8.82	-0.00	7.99	-0.00	4.29	-26.81	2.10	24.94	0.00	-23.27	5.05	9.94	-10.14	-0.00	-2.46	18.38	4.45	2.24	-38.74	-2.60	
-3.18	-50.63	32.71	-7.42	0.72	-87.32	-1.11	8.44	-3.04	0.00	5.52	17.17	-0.31	-16.53	-1.20	0.00	-11.70	-0.00	-0.40	8.64	-1.80	0.00	3.92	-14.37	0.73	-18.16	2.82	-0.00	1.66	-0.00	2.75	8.93	0.84	-0.41	-1.75	-3.40	-8.24	0.00	1.73	25.01	0.99	-22.24	-0.00	-23.96	-5.04	-8.03	-8.83	-0.00	8.01	-0.00	4.30	-26.80	2.06	24.96	-0.00	-23.31	4.98	9.91	-10.12	0.00	-2.56	18.45	4.51	1.93	-38.83	-3.07	
-3.18	-50.63	32.71	-7.42	0.72	-87.32	-1.11	8.44	-3.04	0.00	5.52	17.17	-0.31	-16.53	-1.20	0.00	-11.70	-0.00	-0.40	8.64	-1.80	0.00	3.92	-14.37	0.73	-18.16	2.82	-0.00	1.66	-0.00	2.75	8.93	0.84	-0.41	-1.75	-3.40	-8.24	0.00	1.73	25.01	0.99	-22.24	-0.00	-23.96	-5.04	-8.03	-8.83	-0.00	8.01	-0.00	4.30	-26.80	2.06	24.96	-0.00	-23.31	4.98	9.91	-10.12	0.00	-2.56	18.45	4.51	1.93	-38.83	-3.07	
-3.18	-50.64	32.71	-7.43	0.72	-87.30	-1.12	8.44	-3.06	-0.00	5.53	17.20	-0.31	-16.54	-1.20	0.00	-11.70	-0.00	-0.41	8.64	-1.81	0.00	3.93	-14.38	0.74	-18.17	2.85	-0.00	1.67	-0.00	2.75	8.94	0.83	-0.41	-1.73	-3.42	-8.23	0.00	1.74	24.95	1.02	-22.23	0.00	-23.97	-4.99	-8.04	-8.81	-0.00	8.02	0.00	4.30	-26.79	2.02	24.98	0.00	-23.34	4.92	9.90	-10.10	0.00	-2.64	18.51	4.57	1.65	-38.90	-3.48	
-3.18	-50.64	32.71	-7.43	0.72	-87.30	-1.12	8.44	-3.06	-0.00	5.53	17.20	-0.31	-16.54	-1.20	0.00	-11.70	-0.00	-0.41	8.64	-1.81	0.00	3.93	-14.38	0.74	-18.17	2.85	-0.00	1.67	-0.00	2.75	8.94	0.83	-0.41	-1.73	-3.42	-8.23	0.00	1.74	24.95	1.02	-22.23	0.00	-23.97	-4.99	-8.04	-8.81	-0.00	8.02	0.00	4.30	-26.79	2.02	24.98	0.00	-23.34	4.92	9.90	-10.10	0.00	-2.64	18.51	4.57	1.65	-38.90	-3.48	
-3.18	-50.64	32.71	-7.44	0.71	-87.28	-1.13	8.44	-3.06	0.00	5.54	17.23	-0.31	-16.54	-1.19	0.00	-11.69	-0.00	-0.41	8.64	-1.82	0.00	3.92	-14.37	0.75	-18.17	2.89	0.00	1.71	0.00	2.74	8.96	0.82	-0.41	-1.72	-3.43	-8.22	0.00	1.75	24.92	1.04	-22.26	-0.00	-23.97	-4.98	-8.03	-8.83	-0.00	8.04	-0.00	4.30	-26.77	1.98	24.99	-0.00	-23.40	4.85	9.90	-10.08	0.00	-2.69	18.53	4.59	1.37	-38.95	-3.81	
-3.18	-50.64	32.71	-7.44	0.71	-87.28	-1.13	8.44	-3.06	0.00	5.54	17.23	-0.31	-16.54	-1.19	0.00	-11.69	-0.00	-0.41	8.64	-1.82	0.00	3.92	-14.37	0.75	-18.17	2.89	0.00	1.71	0.00	2.74	8.96	0.82	-0.41	-1.72	-3.43	-8.22	0.00	1.75	24.92	1.04	-22.26	-0.00	-23.97	-4.98	-8.03	-8.83	-0.00	8.04	-0.00	4.30	-26.77	1.98	24.99	-0.00	-23.40	4.85	9.90	-10.08	0.00	-2.69	18.53	4.59	1.37	-38.95	-3.81	
-3.18	-50.65	32.71	-7.45	0.71	-87.25	-1.13	8.44	-3.08	0.00	5.54	17.26	-0.31	-16.54	-1.18	0.00	-11.69	0.00	-0.42	8.64	-1.84	0.00	3.92	-14.37	0.76	-18.17	2.92	0.00	1.70	0.00	2.74	8.98	0.81	-0.42	-1.70	-3.44	-8.20	0.00	1.75	24.89	1.05	-22.30	0.00	-23.97	-4.99	-8.04	-8.84	-0.00	8.05	-0.00	4.31	-26.74	1.94	25.03	-0.00	-23.46	4.83	9.87	-10.06	0.00	-2.72	18.56	4.61	1.08	-39.00	-4.13	
-3.18	-50.65	32.71	-7.45	0.71	-87.25	-1.13	8.44	-3.08	0.00	5.54	17.26	-0.31	-16.54	-1.18	0.00	-11.69	0.00	-0.42	8.64	-1.84	0.00	3.92	-14.37	0.76	-18.17	2.92	0.00	1.70	0.00	2.74	8.98	0.81	-0.42	-1.70	-3.44	-8.20	0.00	1.75	24.89	1.05	-22.30	0.00	-23.97	-4.99	-8.04	-8.84	-0.00	8.05	-0.00	4.31	-26.74	1.94	25.03	-0.00	-23.46	4.83	9.87	-10.06	0.00	-2.72	18.56	4.61	1.08	-39.00	-4.13	
-3.18	-50.65	32.71	-7.46	0.71	-87.22	-1.14	8.44	-3.09	-0.00	5.55	17.29	-0.30	-16.53	-1.17	0.00	-11.69	-0.00	-0.42	8.64	-1.85	0.00	3.91	-14.36	0.77	-18.16	2.96	0.00	1.70	-0.00	2.73	8.99	0.80	-0.43	-1.68	-3.45	-8.19	0.00	1.76	24.87	1.05	-22.35	-0.00	-23.96	-5.01	-8.04	-8.85	-0.00	8.06	-0.00	4.31	-26.70	1.90	25.07	0.00	-23.54	4.81	9.84	-10.04	0.00	-2.74	18.57	4.64	0.81	-39.03	-4.40	
